<svg width="69" height="15" viewBox="0 0 69 15" fill="none" xmlns="http://www.w3.org/2000/svg">
<path d="M28.5754 3.81371C27.3606 3.62045 26.3391 3.51001 25.4832 3.51001C24.8482 3.51001 24.2684 3.59284 23.7715 3.75849C23.026 4.00697 22.4739 4.42111 22.0873 5.0285C21.7008 5.6359 21.5352 6.40895 21.5352 7.34766C21.5352 7.95505 21.618 8.50723 21.756 8.97658C21.9769 9.69442 22.3358 10.219 22.888 10.5779C23.4126 10.9368 24.1028 11.1025 24.9587 11.1025C25.5108 11.1025 26.063 11.0196 26.56 10.8264C26.5324 10.992 26.5048 11.2681 26.4496 11.4062C26.3391 11.6823 26.1459 11.9031 25.8698 12.0412C25.5937 12.1792 25.2071 12.2621 24.7378 12.2621C23.8543 12.2621 23.026 12.1516 22.3358 11.9031C22.2806 11.8755 22.253 11.9031 22.1978 11.9307C22.1702 11.9584 22.1426 12.0136 22.1426 12.0412V13.5321C22.1426 13.5873 22.1702 13.6425 22.253 13.6701C22.9708 13.9186 23.7991 14.029 24.7102 14.029C25.3728 14.029 25.925 13.9738 26.4219 13.8082C27.1674 13.5873 27.7472 13.2284 28.1061 12.6762C28.4926 12.1516 28.6859 11.351 28.6859 10.4951V3.95175C28.6859 3.86893 28.6307 3.81371 28.5754 3.81371ZM23.7715 6.40895C23.8819 6.02243 24.0752 5.77395 24.3513 5.58068C24.6274 5.38742 24.9863 5.30459 25.428 5.30459C25.925 5.30459 26.2839 5.35981 26.56 5.44264V8.89376C26.0906 9.11463 25.6213 9.22507 25.1519 9.22507C24.9034 9.22507 24.6826 9.19746 24.4893 9.11463C24.2132 9.00419 24.02 8.81093 23.8819 8.50723C23.7439 8.20353 23.661 7.81701 23.661 7.32005C23.661 6.96113 23.6887 6.65743 23.7715 6.40895Z" fill="white"/>
<path d="M31.5569 6.02243C31.6673 5.74634 31.8054 5.55307 32.0263 5.44264C32.2471 5.30459 32.5232 5.24937 32.8545 5.24937C33.103 5.24937 33.2963 5.27698 33.4895 5.3322C33.738 5.41503 33.9313 5.55307 34.0417 5.77394C34.1521 5.96721 34.235 6.21569 34.235 6.51939H31.4465C31.4465 6.32612 31.5017 6.16047 31.5569 6.02243ZM34.9528 4.00697C34.4006 3.67566 33.7104 3.51001 32.8545 3.51001C32.2747 3.51001 31.7502 3.59284 31.3084 3.73088C30.6458 3.95175 30.1212 4.36589 29.7899 4.97328C29.4586 5.55307 29.293 6.29852 29.293 7.20961C29.293 7.84462 29.3758 8.3968 29.5414 8.89376C29.7899 9.61159 30.2593 10.1638 30.8943 10.5503C31.5293 10.9092 32.3852 11.1025 33.3791 11.1025C34.3178 11.1025 34.9252 11.0196 35.5878 10.8816C35.6154 10.8816 35.643 10.854 35.6706 10.8264C35.6982 10.7988 35.6983 10.7436 35.6983 10.7436V9.30789C35.6983 9.30789 35.6983 9.25267 35.643 9.19746C35.5878 9.14224 35.505 9.16985 35.505 9.16985C34.7872 9.30789 34.2074 9.36311 33.4895 9.36311C32.7441 9.36311 32.2195 9.22507 31.8606 9.00419C31.6949 8.89376 31.5569 8.75571 31.4741 8.59006C31.4189 8.45201 31.3636 8.31397 31.3636 8.12071H36.0572C36.14 8.12071 36.1952 8.06549 36.1952 8.01027C36.2504 7.70657 36.2504 7.40287 36.2504 7.09917C36.2504 6.51939 36.1676 6.02243 36.0296 5.58068C35.8915 4.83524 35.505 4.33828 34.9528 4.00697Z" fill="white"/>
<path d="M8.11704 1.60506C7.34399 1.1081 6.32245 0.859619 5.08005 0.859619C4.25178 0.859619 3.50634 0.970055 2.87133 1.19093C1.93263 1.52223 1.18719 2.10202 0.717833 2.93029C0.220872 3.73095 0 4.8077 0 6.10532C0.0552179 7.59621 0.496961 8.83861 1.21479 9.69449C1.90502 10.578 2.87133 11.0749 3.94808 11.0749C4.38983 11.0749 4.74874 11.0197 5.05244 10.9369C5.49418 10.7988 5.77027 10.578 5.93593 10.3019C6.10158 10.0258 6.1568 9.7221 6.18441 9.47362C6.18441 9.4184 6.1568 9.36318 6.12919 9.33557C6.10158 9.30796 6.04636 9.30796 5.99115 9.30796C5.96354 9.30796 5.90832 9.33557 5.8531 9.33557C5.65984 9.36318 5.35614 9.39079 5.08005 9.39079C4.58309 9.39079 4.16895 9.30796 3.81004 9.16992C3.25786 8.94905 2.87133 8.61774 2.59524 8.09317C2.31915 7.5686 2.18111 6.87837 2.18111 6.0225C2.18111 5.47032 2.23633 4.97336 2.37437 4.55922C2.56763 3.95182 2.87133 3.48247 3.31308 3.17877C3.75482 2.87507 4.33461 2.70942 5.08005 2.70942C5.5494 2.70942 5.99115 2.79225 6.32245 2.90268C6.84702 3.09595 7.23355 3.45486 7.50964 3.95182C7.78573 4.44878 7.92377 5.13901 7.92377 5.96728C7.92377 6.9612 7.73051 7.70664 7.3992 8.23121C7.37159 8.28643 7.37159 8.34165 7.3992 8.36926C7.42681 8.42448 7.48203 8.45209 7.53725 8.45209C7.53725 8.45209 7.67529 8.45209 7.84095 8.45209C8.44834 8.45209 8.89009 8.25882 9.2214 8.01034C9.60792 7.70664 9.82879 7.2649 9.96684 6.90598C10.1049 6.51946 10.1325 6.18815 10.1325 6.0225C10.1325 5.16662 10.0221 4.39357 9.82879 3.75856C9.46988 2.84746 8.9177 2.10202 8.11704 1.60506Z" fill="white"/>
<path d="M20.816 10.937H19.5736C19.1594 10.937 18.8281 10.6057 18.8281 10.1915V3.78624C18.8281 3.70341 18.8833 3.64819 18.9662 3.64819H20.7884C20.8712 3.64819 20.9264 3.70341 20.9264 3.78624V10.7713C20.954 10.8541 20.8988 10.937 20.816 10.937Z" fill="white"/>
<path d="M20.8157 2.90276H18.9935C18.9107 2.90276 18.8555 2.84754 18.8555 2.76471V1.30144C18.8555 1.21861 18.9107 1.16339 18.9935 1.16339H20.8157C20.8985 1.16339 20.9538 1.21861 20.9538 1.30144V2.76471C20.9538 2.84754 20.8985 2.90276 20.8157 2.90276Z" fill="white"/>
<path fill-rule="evenodd" clip-rule="evenodd" d="M53.203 4.06239L52.1263 8.56266L50.5526 4.11761C50.4145 3.75869 50.0832 3.51021 49.6967 3.51021H49.6139C49.2273 3.51021 48.8684 3.75869 48.758 4.11761L47.1843 8.56266L46.1075 4.06239C46.0247 3.73109 45.721 3.4826 45.3897 3.4826H45.2517H44.5614C44.4786 3.4826 44.3958 3.56543 44.4234 3.67587L46.218 10.799C46.2456 10.8542 46.3008 10.9094 46.356 10.9094H47.6812C47.7365 10.9094 47.7917 10.8818 47.8193 10.8266L49.6415 6.05024L51.4637 10.8266C51.4913 10.8818 51.5465 10.9094 51.6017 10.9094H52.9269C52.9822 10.9094 53.065 10.8542 53.065 10.799L54.8872 3.67587C54.9148 3.59304 54.832 3.4826 54.7491 3.4826H54.0589H53.9209C53.5896 3.51021 53.2859 3.73109 53.203 4.06239Z" fill="white"/>
<path fill-rule="evenodd" clip-rule="evenodd" d="M9.16503 12.6485H7.83979C7.83979 12.6209 7.83979 12.6209 7.83979 12.5933C7.83979 12.5381 7.83979 12.4829 7.83979 12.4553C7.83979 12.4277 7.8674 12.4001 7.8674 12.4001C7.89501 12.3725 7.89501 12.3725 7.92262 12.3725C7.95023 12.3725 7.97784 12.3448 8.03306 12.3448L9.24785 12.0135C9.44111 11.9583 9.57916 11.8755 9.7172 11.7927C9.88286 11.627 9.99329 11.4338 10.0209 11.2405C10.0761 11.0472 10.0761 10.8264 10.0761 10.6055C10.0761 10.5503 10.0761 10.495 10.0761 10.4674C10.0761 10.3018 10.0485 10.1361 9.99329 9.99808C9.93808 9.86004 9.82764 9.722 9.6896 9.61156H9.66199C9.49633 9.47352 9.30307 9.39069 9.10981 9.36308C8.91654 9.30786 8.69567 9.30786 8.4748 9.30786C8.30915 9.30786 8.1711 9.30786 8.03306 9.30786C7.64653 9.30786 7.31522 9.39069 7.03913 9.58395C6.90109 9.69439 6.79065 9.80482 6.73544 9.97048C6.65261 10.1361 6.625 10.3018 6.625 10.5227C6.625 10.6055 6.65261 10.7159 6.68022 10.7711C6.73544 10.8816 6.84587 10.992 6.95631 11.0472C7.03913 11.1024 7.14957 11.1024 7.26001 11.1301C7.31522 11.1301 7.42566 11.1301 7.42566 11.1301H7.81219V10.992C7.81219 10.9644 7.81219 10.9368 7.81219 10.9092C7.81219 10.7987 7.81219 10.6883 7.81219 10.6331C7.81219 10.5503 7.83979 10.495 7.83979 10.4674C7.83979 10.4398 7.8674 10.4122 7.8674 10.3846C7.89501 10.357 7.92262 10.3294 7.97784 10.3294C8.03306 10.3018 8.11588 10.3018 8.22632 10.3018C8.25393 10.3018 8.30915 10.3018 8.33676 10.3018C8.41958 10.3018 8.50241 10.3018 8.58524 10.3018C8.64046 10.3018 8.66806 10.3294 8.72328 10.3294C8.7785 10.357 8.80611 10.3846 8.83372 10.4122C8.86133 10.4674 8.88894 10.5227 8.88894 10.6607C8.88894 10.6883 8.88894 10.6883 8.88894 10.7159C8.88894 10.7987 8.88894 10.854 8.88894 10.9092C8.88894 10.9368 8.88894 10.9644 8.86133 10.992C8.86133 11.0196 8.83372 11.0472 8.80611 11.0748C8.7785 11.1024 8.69567 11.1301 8.61285 11.1577L7.37044 11.5442C7.2324 11.5718 7.12196 11.627 7.01153 11.7098C6.87348 11.8203 6.76304 11.9859 6.70783 12.1516C6.65261 12.3172 6.625 12.5105 6.625 12.7038V13.5596C6.625 13.6425 6.68022 13.6977 6.76304 13.6977H9.93808C10.0209 13.6977 10.0761 13.6425 10.0761 13.5596C10.0761 13.0351 9.6896 12.6485 9.16503 12.6485Z" fill="white"/>
<path fill-rule="evenodd" clip-rule="evenodd" d="M68.8014 5.55314C68.5805 4.86292 68.1664 4.33835 67.6142 4.00704C67.0344 3.64812 66.3166 3.48247 65.4331 3.48247C64.8533 3.48247 64.3288 3.5653 63.8042 3.75856V1.60506C63.8042 1.19093 63.4729 0.859619 63.0587 0.859619H62.3685C62.2857 0.859619 62.2305 0.914837 62.2305 0.997664V6.10532V10.6332C62.2305 10.6884 62.2857 10.7712 62.3409 10.7712C63.2244 10.9645 64.1907 11.0749 65.2398 11.0749C65.8472 11.0749 66.3994 10.9921 66.8688 10.8265C67.5866 10.578 68.1112 10.1362 68.4701 9.52883C68.829 8.89383 68.9947 8.12078 68.9947 7.15446C69.0223 6.54707 68.9394 6.0225 68.8014 5.55314ZM63.8042 6.10532V5.22184C64.2735 5.00096 64.7981 4.89053 65.4331 4.89053C65.792 4.89053 66.0957 4.94575 66.3442 5.02857C66.7307 5.16662 67.0068 5.38749 67.2001 5.7188C67.3933 6.05011 67.5038 6.49185 67.5038 7.07164C67.5038 7.51338 67.4486 7.89991 67.3657 8.23121C67.2277 8.72817 66.9792 9.08709 66.6203 9.30796C66.2614 9.55644 65.8196 9.66688 65.2122 9.66688C64.6601 9.66688 64.2183 9.61166 63.8318 9.50123V6.10532H63.8042Z" fill="white"/>
<path fill-rule="evenodd" clip-rule="evenodd" d="M60.3533 3.95175C59.8287 3.64805 59.1661 3.51001 58.3931 3.51001C57.8133 3.51001 57.3163 3.59284 56.8746 3.73088C56.2119 3.95175 55.715 4.36589 55.3837 4.97328C55.0524 5.55307 54.8867 6.29852 54.8867 7.20961C54.8867 7.84462 54.9695 8.3968 55.1352 8.89376C55.3837 9.61159 55.8254 10.1638 56.4328 10.5503C57.0402 10.9092 57.8409 11.1025 58.8072 11.1025C59.7459 11.1025 60.2981 11.0196 60.9607 10.8264C61.0159 10.7988 61.0711 10.7436 61.0711 10.6883V9.6392C61.0711 9.58398 61.0435 9.55637 61.0159 9.52876C60.9883 9.50115 60.9331 9.50115 60.8779 9.50115C60.2429 9.69442 59.7735 9.77724 58.9452 9.77724C58.5311 9.77724 58.1446 9.72203 57.8409 9.6392C57.3715 9.50115 57.0402 9.28028 56.8193 8.94898C56.6261 8.64528 56.5156 8.28636 56.488 7.81701H61.4577C61.5405 7.81701 61.5957 7.76179 61.5957 7.67896C61.6509 7.34766 61.6509 7.01635 61.6509 6.71265C61.6509 6.18808 61.5957 5.71873 61.4577 5.3322C61.2368 4.7248 60.8503 4.25545 60.3533 3.95175ZM56.6261 5.80155C56.7641 5.47025 56.9574 5.22177 57.2611 5.05611C57.5372 4.89046 57.9237 4.80763 58.3931 4.80763C58.6968 4.80763 58.9452 4.83524 59.1385 4.91807C59.4698 5.0285 59.6907 5.22177 59.8563 5.47025C59.9944 5.71873 60.0772 6.02243 60.1048 6.40895H56.488C56.488 6.18808 56.5433 5.99482 56.6261 5.80155Z" fill="white"/>
<path d="M43.6504 5.1116C43.4847 4.58702 43.181 4.17289 42.7393 3.8968C42.2975 3.62071 41.7454 3.48267 41.0828 3.48267C40.3373 3.48267 39.5919 3.75876 38.9845 4.25572C38.9293 3.95202 38.6532 3.64832 38.2666 3.64832H37.0795C36.9966 3.64832 36.9414 3.70354 36.9414 3.78636V10.7714C36.9414 10.8543 36.9966 10.9095 37.0795 10.9095H38.9016C38.9845 10.9095 39.0397 10.8543 39.0397 10.7714V5.91226C39.5643 5.47051 40.1164 5.27725 40.641 5.27725C40.8343 5.27725 40.9999 5.30486 41.1104 5.33247C41.3036 5.38769 41.4417 5.49812 41.5521 5.66377C41.6349 5.82943 41.6901 6.0503 41.6901 6.32639V9.69468V10.164C41.6901 10.5782 42.0215 10.9095 42.4356 10.9095H42.9326C43.181 10.9095 43.4019 10.9095 43.678 10.9095C43.7056 10.9095 43.7608 10.8819 43.7884 10.8543C43.816 10.8267 43.8436 10.799 43.8436 10.7438C43.8436 9.22533 43.8436 7.81727 43.8436 6.29878C43.816 5.88465 43.7608 5.47051 43.6504 5.1116Z" fill="white"/>
<path d="M18.223 3.86933C18.3058 3.7865 18.223 3.64846 18.1125 3.64846H16.0695C16.0143 3.64846 15.9866 3.67607 15.959 3.70368L14.4958 5.66391L13.1981 3.92455C13.0601 3.73129 12.8392 3.62085 12.5907 3.62085H12.5079H11.2655H10.8514C10.7409 3.62085 10.6581 3.75889 10.7409 3.84172L13.2534 7.29284L10.7133 10.6887C10.6305 10.7716 10.7133 10.9096 10.8238 10.9096H12.8668C12.9221 10.9096 12.9497 10.882 12.9773 10.8544L14.4682 8.89416L15.7658 10.6335C15.9038 10.8268 16.1247 10.9372 16.3732 10.9372H16.7321H18.1125C18.223 10.9372 18.3058 10.7992 18.223 10.7164L15.6829 7.32045L18.223 3.86933Z" fill="white"/>
</svg>
