<svg width="69" height="14" viewBox="0 0 69 14" fill="none" xmlns="http://www.w3.org/2000/svg">
<path d="M28.5754 2.95409C27.3606 2.76083 26.3391 2.65039 25.4832 2.65039C24.8482 2.65039 24.2684 2.73322 23.7715 2.89887C23.026 3.14735 22.4739 3.56149 22.0873 4.16888C21.7008 4.77628 21.5352 5.54933 21.5352 6.48804C21.5352 7.09543 21.618 7.64761 21.756 8.11697C21.9769 8.8348 22.3358 9.35937 22.888 9.71829C23.4126 10.0772 24.1028 10.2429 24.9587 10.2429C25.5108 10.2429 26.063 10.16 26.56 9.96677C26.5324 10.1324 26.5048 10.4085 26.4496 10.5466C26.3391 10.8226 26.1459 11.0435 25.8698 11.1816C25.5937 11.3196 25.2071 11.4024 24.7378 11.4024C23.8543 11.4024 23.026 11.292 22.3358 11.0435C22.2806 11.0159 22.253 11.0435 22.1978 11.0711C22.1702 11.0987 22.1426 11.154 22.1426 11.1816V12.6724C22.1426 12.7277 22.1702 12.7829 22.253 12.8105C22.9708 13.059 23.7991 13.1694 24.7102 13.1694C25.3728 13.1694 25.925 13.1142 26.4219 12.9485C27.1674 12.7277 27.7472 12.3687 28.1061 11.8166C28.4926 11.292 28.6859 10.4913 28.6859 9.63546V3.09213C28.6859 3.00931 28.6307 2.95409 28.5754 2.95409ZM23.7715 5.54933C23.8819 5.16281 24.0752 4.91433 24.3513 4.72106C24.6274 4.5278 24.9863 4.44497 25.428 4.44497C25.925 4.44497 26.2839 4.50019 26.56 4.58302V8.03414C26.0906 8.25501 25.6213 8.36545 25.1519 8.36545C24.9034 8.36545 24.6826 8.33784 24.4893 8.25501C24.2132 8.14457 24.02 7.95131 23.8819 7.64761C23.7439 7.34391 23.661 6.95739 23.661 6.46043C23.661 6.10151 23.6887 5.79781 23.7715 5.54933Z" fill="white"/>
<path d="M31.5569 5.16281C31.6673 4.88672 31.8054 4.69345 32.0263 4.58302C32.2471 4.44497 32.5232 4.38976 32.8545 4.38976C33.103 4.38976 33.2963 4.41736 33.4895 4.47258C33.738 4.55541 33.9313 4.69345 34.0417 4.91433C34.1521 5.10759 34.235 5.35607 34.235 5.65977H31.4465C31.4465 5.4665 31.5017 5.30085 31.5569 5.16281ZM34.9528 3.14735C34.4006 2.81604 33.7104 2.65039 32.8545 2.65039C32.2747 2.65039 31.7502 2.73322 31.3084 2.87126C30.6458 3.09213 30.1212 3.50627 29.7899 4.11367C29.4586 4.69345 29.293 5.4389 29.293 6.34999C29.293 6.985 29.3758 7.53718 29.5414 8.03414C29.7899 8.75197 30.2593 9.30415 30.8943 9.69068C31.5293 10.0496 32.3852 10.2429 33.3791 10.2429C34.3178 10.2429 34.9252 10.16 35.5878 10.022C35.6154 10.022 35.643 9.99437 35.6706 9.96677C35.6982 9.93916 35.6983 9.88394 35.6983 9.88394V8.44827C35.6983 8.44827 35.6983 8.39306 35.643 8.33784C35.5878 8.28262 35.505 8.31023 35.505 8.31023C34.7872 8.44827 34.2074 8.50349 33.4895 8.50349C32.7441 8.50349 32.2195 8.36545 31.8606 8.14457C31.6949 8.03414 31.5569 7.89609 31.4741 7.73044C31.4189 7.59239 31.3636 7.45435 31.3636 7.26109H36.0572C36.14 7.26109 36.1952 7.20587 36.1952 7.15065C36.2504 6.84695 36.2504 6.54325 36.2504 6.23956C36.2504 5.65977 36.1676 5.16281 36.0296 4.72106C35.8915 3.97562 35.505 3.47866 34.9528 3.14735Z" fill="white"/>
<path d="M8.11704 0.745442C7.34399 0.248481 6.32245 0 5.08005 0C4.25178 0 3.50634 0.110436 2.87133 0.331308C1.93263 0.662615 1.18719 1.2424 0.717833 2.07067C0.220872 2.87133 0 3.94808 0 5.2457C0.0552179 6.73659 0.496961 7.97899 1.21479 8.83487C1.90502 9.71836 2.87133 10.2153 3.94808 10.2153C4.38983 10.2153 4.74874 10.1601 5.05244 10.0773C5.49418 9.93923 5.77027 9.71836 5.93593 9.44227C6.10158 9.16618 6.1568 8.86248 6.18441 8.614C6.18441 8.55878 6.1568 8.50356 6.12919 8.47595C6.10158 8.44834 6.04636 8.44834 5.99115 8.44834C5.96354 8.44834 5.90832 8.47595 5.8531 8.47595C5.65984 8.50356 5.35614 8.53117 5.08005 8.53117C4.58309 8.53117 4.16895 8.44834 3.81004 8.3103C3.25786 8.08943 2.87133 7.75812 2.59524 7.23355C2.31915 6.70898 2.18111 6.01875 2.18111 5.16288C2.18111 4.6107 2.23633 4.11374 2.37437 3.6996C2.56763 3.0922 2.87133 2.62285 3.31308 2.31915C3.75482 2.01545 4.33461 1.8498 5.08005 1.8498C5.5494 1.8498 5.99115 1.93263 6.32245 2.04306C6.84702 2.23633 7.23355 2.59524 7.50964 3.0922C7.78573 3.58917 7.92377 4.27939 7.92377 5.10766C7.92377 6.10158 7.73051 6.84702 7.3992 7.37159C7.37159 7.42681 7.37159 7.48203 7.3992 7.50964C7.42681 7.56486 7.48203 7.59247 7.53725 7.59247C7.53725 7.59247 7.67529 7.59247 7.84095 7.59247C8.44834 7.59247 8.89009 7.3992 9.2214 7.15072C9.60792 6.84702 9.82879 6.40528 9.96684 6.04636C10.1049 5.65984 10.1325 5.32853 10.1325 5.16288C10.1325 4.307 10.0221 3.53395 9.82879 2.89894C9.46988 1.98785 8.9177 1.2424 8.11704 0.745442Z" fill="white"/>
<path d="M20.816 10.0773H19.5736C19.1594 10.0773 18.8281 9.74603 18.8281 9.3319V2.92662C18.8281 2.84379 18.8833 2.78857 18.9662 2.78857H20.7884C20.8712 2.78857 20.9264 2.84379 20.9264 2.92662V9.91169C20.954 9.99451 20.8988 10.0773 20.816 10.0773Z" fill="white"/>
<path d="M20.8157 2.0432H18.9935C18.9107 2.0432 18.8555 1.98798 18.8555 1.90515V0.441878C18.8555 0.359051 18.9107 0.303833 18.9935 0.303833H20.8157C20.8985 0.303833 20.9538 0.359051 20.9538 0.441878V1.90515C20.9538 1.98798 20.8985 2.0432 20.8157 2.0432Z" fill="white"/>
<path fill-rule="evenodd" clip-rule="evenodd" d="M53.203 3.20284L52.1263 7.7031L50.5526 3.25805C50.4145 2.89914 50.0832 2.65066 49.6967 2.65066H49.6139C49.2273 2.65066 48.8684 2.89914 48.758 3.25805L47.1843 7.7031L46.1075 3.20284C46.0247 2.87153 45.721 2.62305 45.3897 2.62305H45.2517H44.5614C44.4786 2.62305 44.3958 2.70587 44.4234 2.81631L46.218 9.93942C46.2456 9.99464 46.3008 10.0499 46.356 10.0499H47.6812C47.7365 10.0499 47.7917 10.0223 47.8193 9.96703L49.6415 5.19068L51.4637 9.96703C51.4913 10.0223 51.5465 10.0499 51.6017 10.0499H52.9269C52.9822 10.0499 53.065 9.99464 53.065 9.93942L54.8872 2.81631C54.9148 2.73348 54.832 2.62305 54.7491 2.62305H54.0589H53.9209C53.5896 2.65066 53.2859 2.87153 53.203 3.20284Z" fill="white"/>
<path fill-rule="evenodd" clip-rule="evenodd" d="M9.16698 11.7889H7.84175C7.84175 11.7613 7.84175 11.7613 7.84175 11.7337C7.84175 11.6785 7.84175 11.6233 7.84175 11.5957C7.84175 11.5681 7.86936 11.5404 7.86936 11.5404C7.89697 11.5128 7.89697 11.5128 7.92457 11.5128C7.95218 11.5128 7.97979 11.4852 8.03501 11.4852L9.24981 11.1539C9.44307 11.0987 9.58111 11.0159 9.71916 10.933C9.88481 10.7674 9.99525 10.5741 10.0229 10.3809C10.0781 10.1876 10.0781 9.96674 10.0781 9.74586C10.0781 9.69065 10.0781 9.63543 10.0781 9.60782C10.0781 9.44216 10.0505 9.27651 9.99525 9.13847C9.94003 9.00042 9.82959 8.86238 9.69155 8.75194H9.66394C9.49829 8.6139 9.30502 8.53107 9.11176 8.50346C8.9185 8.44824 8.69763 8.44824 8.47675 8.44824C8.3111 8.44824 8.17306 8.44824 8.03501 8.44824C7.64849 8.44824 7.31718 8.53107 7.04109 8.72433C6.90304 8.83477 6.79261 8.9452 6.73739 9.11086C6.65456 9.27651 6.62695 9.44216 6.62695 9.66304C6.62695 9.74586 6.65456 9.8563 6.68217 9.91152C6.73739 10.022 6.84783 10.1324 6.95826 10.1876C7.04109 10.2428 7.15152 10.2428 7.26196 10.2704C7.31718 10.2704 7.42761 10.2704 7.42761 10.2704H7.81414V10.1324C7.81414 10.1048 7.81414 10.0772 7.81414 10.0496C7.81414 9.93913 7.81414 9.82869 7.81414 9.77347C7.81414 9.69065 7.84175 9.63543 7.84175 9.60782C7.84175 9.58021 7.86936 9.5526 7.86936 9.52499C7.89697 9.49738 7.92457 9.46977 7.97979 9.46977C8.03501 9.44216 8.11784 9.44217 8.22827 9.44217C8.25588 9.44217 8.3111 9.44217 8.33871 9.44217C8.42154 9.44217 8.50436 9.44217 8.58719 9.44217C8.64241 9.44217 8.67002 9.46977 8.72523 9.46977C8.78045 9.49738 8.80806 9.52499 8.83567 9.5526C8.86328 9.60782 8.89089 9.66304 8.89089 9.80108C8.89089 9.82869 8.89089 9.82869 8.89089 9.8563C8.89089 9.93913 8.89089 9.99434 8.89089 10.0496C8.89089 10.0772 8.89089 10.1048 8.86328 10.1324C8.86328 10.16 8.83567 10.1876 8.80806 10.2152C8.78045 10.2428 8.69763 10.2704 8.6148 10.298L7.3724 10.6846C7.23435 10.7122 7.12391 10.7674 7.01348 10.8502C6.87543 10.9607 6.765 11.1263 6.70978 11.292C6.65456 11.4576 6.62695 11.6509 6.62695 11.8441V12.7C6.62695 12.7828 6.68217 12.8381 6.765 12.8381H9.94003C10.0229 12.8381 10.0781 12.7828 10.0781 12.7C10.0781 12.1755 9.69155 11.7889 9.16698 11.7889Z" fill="white"/>
<path fill-rule="evenodd" clip-rule="evenodd" d="M68.8014 4.69352C68.5805 4.0033 68.1664 3.47873 67.6142 3.14742C67.0344 2.78851 66.3166 2.62285 65.4331 2.62285C64.8533 2.62285 64.3288 2.70568 63.8042 2.89894V0.745442C63.8042 0.331308 63.4729 0 63.0587 0H62.3685C62.2857 0 62.2305 0.0552179 62.2305 0.138045V5.2457V9.77357C62.2305 9.82879 62.2857 9.91162 62.3409 9.91162C63.2244 10.1049 64.1907 10.2153 65.2398 10.2153C65.8472 10.2153 66.3994 10.1325 66.8688 9.96684C67.5866 9.71836 68.1112 9.27661 68.4701 8.66922C68.829 8.03421 68.9947 7.26116 68.9947 6.29484C69.0223 5.68745 68.9394 5.16288 68.8014 4.69352ZM63.8042 5.2457V4.36222C64.2735 4.14135 64.7981 4.03091 65.4331 4.03091C65.792 4.03091 66.0957 4.08613 66.3442 4.16895C66.7307 4.307 67.0068 4.52787 67.2001 4.85918C67.3933 5.19049 67.5038 5.63223 67.5038 6.21202C67.5038 6.65376 67.4486 7.04029 67.3657 7.37159C67.2277 7.86856 66.9792 8.22747 66.6203 8.44834C66.2614 8.69683 65.8196 8.80726 65.2122 8.80726C64.6601 8.80726 64.2183 8.75204 63.8318 8.64161V5.2457H63.8042Z" fill="white"/>
<path fill-rule="evenodd" clip-rule="evenodd" d="M60.3533 3.09213C59.8287 2.78844 59.1661 2.65039 58.3931 2.65039C57.8133 2.65039 57.3163 2.73322 56.8746 2.87126C56.2119 3.09213 55.715 3.50627 55.3837 4.11367C55.0524 4.69345 54.8867 5.4389 54.8867 6.34999C54.8867 6.985 54.9695 7.53718 55.1352 8.03414C55.3837 8.75197 55.8254 9.30415 56.4328 9.69068C57.0402 10.0496 57.8409 10.2429 58.8072 10.2429C59.7459 10.2429 60.2981 10.16 60.9607 9.96677C61.0159 9.93916 61.0711 9.88394 61.0711 9.82872V8.77958C61.0711 8.72436 61.0435 8.69675 61.0159 8.66914C60.9883 8.64154 60.9331 8.64154 60.8779 8.64154C60.2429 8.8348 59.7735 8.91762 58.9452 8.91762C58.5311 8.91762 58.1446 8.86241 57.8409 8.77958C57.3715 8.64154 57.0402 8.42066 56.8193 8.08936C56.6261 7.78566 56.5156 7.42674 56.488 6.95739H61.4577C61.5405 6.95739 61.5957 6.90217 61.5957 6.81934C61.6509 6.48804 61.6509 6.15673 61.6509 5.85303C61.6509 5.32846 61.5957 4.85911 61.4577 4.47258C61.2368 3.86519 60.8503 3.39583 60.3533 3.09213ZM56.6261 4.94193C56.7641 4.61063 56.9574 4.36215 57.2611 4.19649C57.5372 4.03084 57.9237 3.94801 58.3931 3.94801C58.6968 3.94801 58.9452 3.97562 59.1385 4.05845C59.4698 4.16888 59.6907 4.36215 59.8563 4.61063C59.9944 4.85911 60.0772 5.16281 60.1048 5.54933H56.488C56.488 5.32846 56.5433 5.1352 56.6261 4.94193Z" fill="white"/>
<path d="M43.6504 4.25198C43.4847 3.72741 43.181 3.31327 42.7393 3.03718C42.2975 2.76109 41.7454 2.62305 41.0828 2.62305C40.3373 2.62305 39.5919 2.89914 38.9845 3.3961C38.9293 3.0924 38.6532 2.7887 38.2666 2.7887H37.0795C36.9966 2.7887 36.9414 2.84392 36.9414 2.92675V9.91182C36.9414 9.99464 36.9966 10.0499 37.0795 10.0499H38.9016C38.9845 10.0499 39.0397 9.99464 39.0397 9.91182V5.05264C39.5643 4.61089 40.1164 4.41763 40.641 4.41763C40.8343 4.41763 40.9999 4.44524 41.1104 4.47285C41.3036 4.52807 41.4417 4.6385 41.5521 4.80416C41.6349 4.96981 41.6901 5.19068 41.6901 5.46677V8.83506V9.30442C41.6901 9.71855 42.0215 10.0499 42.4356 10.0499H42.9326C43.181 10.0499 43.4019 10.0499 43.678 10.0499C43.7056 10.0499 43.7608 10.0223 43.7884 9.99464C43.816 9.96703 43.8436 9.93942 43.8436 9.88421C43.8436 8.36571 43.8436 6.95766 43.8436 5.43916C43.816 5.02503 43.7608 4.61089 43.6504 4.25198Z" fill="white"/>
<path d="M18.223 3.00971C18.3058 2.92688 18.223 2.78884 18.1125 2.78884H16.0695C16.0143 2.78884 15.9866 2.81645 15.959 2.84406L14.4958 4.80429L13.1981 3.06493C13.0601 2.87167 12.8392 2.76123 12.5907 2.76123H12.5079H11.2655H10.8514C10.7409 2.76123 10.6581 2.89928 10.7409 2.9821L13.2534 6.43322L10.7133 9.82913C10.6305 9.91195 10.7133 10.05 10.8238 10.05H12.8668C12.9221 10.05 12.9497 10.0224 12.9773 9.99478L14.4682 8.03454L15.7658 9.77391C15.9038 9.96717 16.1247 10.0776 16.3732 10.0776H16.7321H18.1125C18.223 10.0776 18.3058 9.93956 18.223 9.85674L15.6829 6.46083L18.223 3.00971Z" fill="white"/>
</svg>
