<svg width="279" height="21" viewBox="0 0 279 21" fill="none" xmlns="http://www.w3.org/2000/svg">
<path d="M201.739 17.8848H201.733C201.148 17.8806 195.97 17.8335 194.504 17.437C193.479 17.1616 192.67 16.353 192.393 15.3279C192.009 13.8869 192.034 11.1128 192.036 10.8914C192.034 10.6711 192.009 7.87385 192.392 6.42109L192.393 6.41692C192.666 5.40359 193.494 4.56992 194.501 4.2938C194.504 4.29304 194.506 4.29228 194.509 4.2919C195.959 3.91019 201.147 3.86386 201.734 3.85968H201.744C202.331 3.86386 207.522 3.91095 208.976 4.30823C209.998 4.58283 210.807 5.3903 211.084 6.41426C211.482 7.86816 211.445 10.6711 211.441 10.9077C211.444 11.1409 211.467 13.89 211.086 15.3382L211.084 15.3424C210.808 16.3675 209.999 17.1757 208.973 17.4518L208.969 17.453C207.518 17.8339 202.331 17.8806 201.744 17.8848H201.739ZM193.858 6.80964C193.52 8.09186 193.552 10.8534 193.553 10.8812V10.9013C193.543 11.667 193.578 13.885 193.858 14.9352C193.993 15.4381 194.392 15.8365 194.898 15.9728C195.981 16.2657 200.197 16.3576 201.738 16.3686C203.283 16.3576 207.506 16.2683 208.58 15.9873C209.085 15.8509 209.482 15.4537 209.619 14.95C209.899 13.8843 209.934 11.6772 209.924 10.9161C209.924 10.9081 209.924 10.9002 209.924 10.8922C209.938 10.117 209.91 7.87347 209.62 6.81457L209.62 6.81154C209.483 6.30639 209.084 5.90798 208.578 5.77163C207.506 5.47879 203.283 5.38688 201.738 5.37587C200.194 5.38688 195.975 5.47614 194.898 5.75681C194.402 5.89468 193.994 6.30753 193.858 6.80964ZM199.806 13.9424V7.80169L205.113 10.872L199.806 13.9424Z" fill="white"/>
<rect x="65" y="2.85968" width="17" height="17" rx="4" stroke="white" stroke-width="2"/>
<path d="M76 9.95343H74.125V8.82843C74.125 8.518 74.4051 8.26593 74.75 8.26593H75.375V6.85968H74.125C73.0895 6.85968 72.25 7.61519 72.25 8.54718V9.95343H71V11.3597H72.25V15.8597H74.125V11.3597H75.375L76 9.95343Z" fill="white"/>
<path d="M141.086 0.85968H133.948C130.664 0.85968 128 3.60688 128 6.99438V14.356C128 17.7435 130.664 20.4907 133.948 20.4907H141.086C144.371 20.4907 147.035 17.7435 147.035 14.356V6.99438C147.035 3.60688 144.371 0.85968 141.086 0.85968ZM145.25 14.356C145.25 16.724 143.382 18.6503 141.086 18.6503H133.948C131.652 18.6503 129.784 16.724 129.784 14.356V6.99438C129.784 4.62639 131.652 2.70009 133.948 2.70009H141.086C143.382 2.70009 145.25 4.62639 145.25 6.99438V14.356Z" fill="white"/>
<path d="M137.516 5.7674C134.888 5.7674 132.758 7.96477 132.758 10.6752C132.758 13.3855 134.888 15.5829 137.516 15.5829C140.144 15.5829 142.275 13.3855 142.275 10.6752C142.275 7.96477 140.144 5.7674 137.516 5.7674ZM137.516 13.7425C135.877 13.7425 134.542 12.366 134.542 10.6752C134.542 8.98313 135.877 7.6078 137.516 7.6078C139.156 7.6078 140.491 8.98313 140.491 10.6752C140.491 12.366 139.156 13.7425 137.516 13.7425Z" fill="white"/>
<path d="M142.753 5.7675C143.016 5.7675 143.229 5.54778 143.229 5.27673C143.229 5.00568 143.016 4.78595 142.753 4.78595C142.49 4.78595 142.277 5.00568 142.277 5.27673C142.277 5.54778 142.49 5.7675 142.753 5.7675Z" fill="white"/>
<rect x="1" y="2.85968" width="17" height="17" rx="4" stroke="white" stroke-width="2"/>
<path fill-rule="evenodd" clip-rule="evenodd" d="M5.26172 7.4401C5.26172 6.8435 5.74603 6.35919 6.34263 6.35919C6.939 6.35919 7.42331 6.8435 7.42354 7.4401C7.42354 8.0367 6.93923 8.5311 6.34263 8.5311C5.74603 8.5311 5.26172 8.0367 5.26172 7.4401ZM14.2598 15.3615V15.3611H14.2622V12.0597C14.2622 10.4448 13.9145 9.2005 12.0263 9.2005C11.1186 9.2005 10.5096 9.69864 10.2609 10.1708H10.2346V9.35123H8.44434V15.3611H10.3084V12.3853C10.3084 11.6019 10.4571 10.8443 11.4273 10.8443C12.3835 10.8443 12.3976 11.7383 12.3976 12.4357V15.3615H14.2598ZM7.27563 9.35089H5.40918V15.3607H7.27563V9.35089Z" fill="white"/>
<path d="M278.445 4.8723C277.627 5.21353 276.755 5.43992 275.847 5.54985C276.782 5.01901 277.495 4.18454 277.831 3.17884C276.959 3.67331 275.996 4.0223 274.971 4.21723C274.143 3.37867 272.963 2.85968 271.676 2.85968C269.179 2.85968 267.168 4.7873 267.168 7.15014C267.168 7.49014 267.198 7.81706 267.273 8.12845C263.524 7.95437 260.206 6.24538 257.977 3.64184C257.587 4.28384 257.359 5.01901 257.359 5.81016C257.359 7.29562 258.164 8.61271 259.363 9.37485C258.638 9.36177 257.927 9.16153 257.325 8.84646C257.325 8.85954 257.325 8.8767 257.325 8.89345C257.325 10.978 258.888 12.7095 260.939 13.1083C260.572 13.2039 260.171 13.2497 259.756 13.2497C259.467 13.2497 259.176 13.2342 258.902 13.1766C259.487 14.8753 261.145 16.1242 263.117 16.1646C261.582 17.3064 259.634 17.9942 257.525 17.9942C257.155 17.9942 256.8 17.9786 256.445 17.9353C258.443 19.1601 260.811 19.8597 263.364 19.8597C271.663 19.8597 276.201 13.3212 276.201 7.6536C276.201 7.46398 276.194 7.28091 276.185 7.09905C277.08 6.49506 277.832 5.74069 278.445 4.8723Z" fill="white"/>
</svg>
